<svg width="14" height="24" viewBox="0 0 14 24" fill="none" xmlns="http://www.w3.org/2000/svg">
<path d="M7.00003 11.3079C9.41475 11.3079 11.3793 9.34333 11.3793 6.92861C11.3793 4.51385 9.41475 2.54932 7.00003 2.54932C4.58532 2.54932 2.62079 4.51385 2.62079 6.92861C2.62079 9.34333 4.58532 11.3079 7.00003 11.3079ZM7.00003 3.25249C9.02704 3.25249 10.6762 4.90164 10.6762 6.92866C10.6762 8.95568 9.02704 10.6047 7.00003 10.6047C4.97302 10.6047 3.32391 8.95563 3.32391 6.92861C3.32391 4.9016 4.97302 3.25249 7.00003 3.25249Z" fill="white"/>
<path d="M13.4225 8.39452C13.2357 8.34098 13.0412 8.44964 12.9881 8.63634C12.8292 9.19444 13.1355 8.46328 7.49947 20.7948C7.40764 20.9957 7.22094 21.1157 7.00006 21.1157C6.77919 21.1157 6.59248 20.9958 6.50065 20.7948L4.14833 15.648C4.06761 15.4714 3.85897 15.3937 3.68244 15.4744C3.50586 15.5551 3.42814 15.7637 3.50881 15.9403L4.94431 19.0811C3.41886 19.5133 2.45581 20.3985 2.45581 21.4037C2.45581 22.8596 4.45189 24 7.00006 24C9.54823 24 11.5443 22.8596 11.5443 21.4037C11.5443 20.3985 10.5813 19.5134 9.05581 19.0811C13.8921 8.49933 13.475 9.49392 13.6644 8.82891C13.7175 8.64211 13.6092 8.44767 13.4225 8.39452ZM8.75989 19.7286C10.016 20.0587 10.8412 20.7142 10.8412 21.4037C10.8412 22.43 9.08215 23.2969 7.00006 23.2969C4.91797 23.2969 3.15894 22.43 3.15894 21.4037C3.15894 20.7142 3.98417 20.0587 5.24023 19.7286L5.86114 21.0871C6.06744 21.5385 6.5038 21.8188 7.00006 21.8188C7.49633 21.8188 7.93269 21.5385 8.13898 21.0871L8.75989 19.7286Z" fill="white"/>
<path d="M7 0C3.17969 0 0.0715942 3.10809 0.0715942 6.92845C0.0715942 7.92136 0.312672 8.94713 0.565188 9.49978C0.853188 10.13 2.48917 13.7094 2.82681 14.4481C2.90758 14.6248 3.11622 14.7024 3.2927 14.6217C3.46933 14.541 3.547 14.3324 3.46633 14.1558C3.09489 13.3432 3.52989 14.295 1.2085 9.21567C0.920688 8.4877 0.774766 7.7182 0.774766 6.92841C0.774719 3.4958 3.56734 0.703125 7 0.703125C10.4935 0.703125 13.3212 3.59484 13.2228 7.10541C13.2174 7.29952 13.3703 7.46123 13.5644 7.46667C13.7586 7.47103 13.9203 7.3192 13.9256 7.12509C14.0351 3.21998 10.8895 0 7 0V0Z" fill="white"/>
</svg>
