<svg width="24" height="18" viewBox="0 0 24 18" fill="none" xmlns="http://www.w3.org/2000/svg">
<path d="M23.6484 0.914062H0.351562C0.157406 0.914062 0 1.07147 0 1.26562V16.7344C0 16.9285 0.157406 17.0859 0.351562 17.0859H23.6484C23.8426 17.0859 24 16.9285 24 16.7344V1.26562C24 1.07147 23.8426 0.914062 23.6484 0.914062ZM0.703125 3.33844C0.822422 3.46003 0.954469 3.57094 1.09969 3.66736L5.28342 6.44531C5.34323 6.48502 5.41073 6.50405 5.47758 6.50405C5.59139 6.50405 5.70309 6.44883 5.77078 6.34687C5.87822 6.18511 5.83416 5.96695 5.67234 5.85956L1.48861 3.08161C0.99675 2.75498 0.703125 2.20758 0.703125 1.61719H23.2969C23.2969 2.20758 23.0033 2.75503 22.5114 3.08161L12.9723 9.41541C12.3817 9.80761 11.6183 9.80761 11.0276 9.41541L6.84389 6.63745C6.68222 6.53011 6.46397 6.57408 6.35658 6.73589C6.24914 6.89766 6.2932 7.11581 6.45497 7.2232L9.13097 9L1.09969 14.3326C0.954469 14.4291 0.822422 14.54 0.703125 14.6616V3.33844ZM0.703125 16.3828C0.703125 15.7924 0.99675 15.245 1.48861 14.9184L9.76655 9.42197L10.6388 10.0011C11.0522 10.2757 11.5261 10.4129 12 10.4129C12.4739 10.4129 12.9478 10.2757 13.3613 10.0011L14.2335 9.42197L22.5114 14.9184C23.0033 15.245 23.2969 15.7924 23.2969 16.3828H0.703125ZM23.2969 14.6616C23.1776 14.54 23.0456 14.4291 22.9004 14.3327L14.869 9L22.9003 3.66736C23.0455 3.57094 23.1776 3.46003 23.2969 3.33844V14.6616Z" fill="white"/>
</svg>
