<svg width="24" height="24" viewBox="0 0 24 24" fill="none" xmlns="http://www.w3.org/2000/svg">
<path d="M21.6949 1.79838C20.2347 0.638668 18.2985 0 16.2428 0C14.1871 0 12.2508 0.638668 10.7906 1.79838C9.30425 2.97883 8.48566 4.55635 8.48566 6.24035C8.48566 9.20427 11.0431 11.7314 14.6108 12.3424C14.6836 13.2857 14.3452 14.2241 13.6784 14.8974C13.5684 15.0083 13.536 15.1746 13.5961 15.3188C13.6562 15.463 13.7971 15.5569 13.9534 15.5569C15.8537 15.5569 17.4847 14.1953 17.8603 12.3448C19.5126 12.0628 21.0184 11.3463 22.1269 10.31C23.3348 9.18068 24 7.73539 24 6.24035C24 4.55635 23.1814 2.97883 21.6949 1.79838ZM17.4608 11.6231C17.2592 11.6509 17.1135 11.8301 17.1275 12.0331C17.1277 12.0361 17.128 12.039 17.1282 12.0419C16.9314 13.3093 16.012 14.3182 14.832 14.6586C15.2918 13.8786 15.4831 12.9531 15.3563 12.0383C15.3565 12.0365 15.3566 12.0347 15.3567 12.0329C15.3707 11.8299 15.2251 11.6508 15.0235 11.6229C11.6838 11.1613 9.25991 8.89758 9.25991 6.2403C9.25986 3.22632 12.3925 0.774205 16.2428 0.774205C20.0932 0.774205 23.2258 3.22632 23.2258 6.2403C23.2258 8.89815 20.8012 11.1619 17.4608 11.6231Z" fill="white"/>
<path d="M13.6449 5.82764C13.4172 5.82764 13.232 6.01288 13.232 6.24055C13.232 6.46822 13.4172 6.65346 13.6449 6.65346C13.8726 6.65346 14.0578 6.46822 14.0578 6.24055C14.0578 6.01288 13.8726 5.82764 13.6449 5.82764Z" fill="white"/>
<path d="M18.8409 5.82764C18.6132 5.82764 18.428 6.01288 18.428 6.24055C18.428 6.46822 18.6132 6.65346 18.8409 6.65346C19.0686 6.65346 19.2538 6.46822 19.2538 6.24055C19.2538 6.01288 19.0686 5.82764 18.8409 5.82764Z" fill="white"/>
<path d="M16.2429 5.82764C16.0152 5.82764 15.83 6.01288 15.83 6.24055C15.83 6.46822 16.0152 6.65346 16.2429 6.65346C16.4705 6.65346 16.6558 6.46822 16.6558 6.24055C16.6558 6.01288 16.4706 5.82764 16.2429 5.82764Z" fill="white"/>
<path d="M16.5377 18.7923C15.4187 17.6734 14.2425 16.7462 14.193 16.7074C14.0389 16.5863 13.8187 16.5994 13.68 16.738L12.2131 18.205L7.45006 13.4419C7.29893 13.2908 7.05382 13.2907 6.90264 13.4419C6.75147 13.5931 6.75147 13.8382 6.90264 13.9894L11.9394 19.0262C12.0119 19.0987 12.1104 19.1395 12.2131 19.1395C12.3157 19.1395 12.4142 19.0987 12.4868 19.0262L13.9813 17.5316C14.3924 17.8691 15.2145 18.5641 15.9903 19.3399C16.768 20.1175 17.4657 20.9434 17.8021 21.3532C17.1504 21.9995 15.8285 23.1259 14.8423 23.2168C12.915 23.3953 9.28972 21.2387 6.02573 17.9748C2.76168 14.7107 0.606032 11.0852 0.783583 9.15812C0.874475 8.17199 2.00094 6.84995 2.6472 6.19833C3.05701 6.5347 3.88283 7.23241 4.6606 8.01018C5.43558 8.78516 6.13107 9.60783 6.46878 10.0191L4.9743 11.5136C4.82313 11.6648 4.82313 11.9099 4.9743 12.061L5.80771 12.8944C5.95889 13.0456 6.204 13.0456 6.35512 12.8944C6.5063 12.7432 6.5063 12.4982 6.35512 12.347L5.79543 11.7873L7.26239 10.3203C7.40097 10.1817 7.41413 9.96144 7.293 9.80737C7.25408 9.75787 6.32689 8.58165 5.20796 7.46266C4.08903 6.34373 2.9128 5.41654 2.86325 5.37767C2.71404 5.26041 2.5018 5.26856 2.36198 5.39713C2.27233 5.47961 0.164787 7.43577 0.0125781 9.08705C-0.187735 11.2611 2.00874 15.0528 5.47816 18.5223C8.8013 21.8453 12.4198 24.0005 14.6295 24.0004C14.7269 24.0004 14.8216 23.9963 14.9132 23.9878C16.5645 23.8356 18.5208 21.728 18.6032 21.6384C18.7317 21.4987 18.74 21.2864 18.6227 21.1371C18.5839 21.0876 17.6567 19.9113 16.5377 18.7923Z" fill="white"/>
</svg>
