<svg width="74" height="80" viewBox="0 0 74 80" fill="none" xmlns="http://www.w3.org/2000/svg">
<path d="M69.3303 30.3908C75.5858 18.3845 73.5741 12.5417 70.7855 9.75469C67.9972 6.96625 62.1536 4.95531 50.1498 11.2094C49.5776 11.5072 48.9945 11.8227 48.4105 12.1497C45.8058 11.2023 43.0945 10.5855 40.3286 10.3114C40.7184 9.315 40.9523 8.39844 40.9523 7.63234C40.9519 3.42391 37.5281 0 33.3197 0C29.1112 0 25.6875 3.42391 25.6875 7.63234C25.6875 8.74266 26.1783 10.1691 26.9244 11.6964C19.913 13.915 13.7758 18.4347 9.55093 24.5213C9.18187 25.053 9.31359 25.7831 9.84546 26.1522C10.0492 26.2936 10.282 26.3614 10.5127 26.3614C10.8837 26.3614 11.2487 26.1856 11.4764 25.8577C13.1016 23.5164 15.0317 21.4255 17.1964 19.6309L17.8831 21.6702C18.1677 22.515 18.8887 23.1427 19.7648 23.308L25.4248 24.3758C25.4537 24.3813 25.4798 24.3967 25.4984 24.4197L28.3191 27.8877C28.6339 28.2747 29.0528 28.5542 29.5309 28.6963L32.3451 29.5325C32.3642 29.5381 32.3817 29.5484 32.3961 29.562L37.8516 34.7964C37.8758 34.8197 37.8898 34.8527 37.8898 34.8866V40.9577C37.8898 40.9836 37.882 41.0083 37.867 41.0295L35.7987 43.9591C35.2203 44.7788 35.1933 45.8559 35.73 46.7033L36.2247 47.4845C36.593 48.0658 37.1925 48.4695 37.8694 48.5922L41.4816 49.2473C41.6255 49.2734 41.7709 49.2863 41.9156 49.2863C42.5214 49.2863 43.1184 49.0625 43.5731 48.6533L47.8575 44.7973C48.3769 44.33 48.6747 43.6613 48.6747 42.9623V35.8561C48.6747 35.8284 48.6842 35.8011 48.7012 35.7792L51.9262 31.6633C51.9498 31.633 51.9856 31.6156 52.0242 31.6156H59.3773C58.7008 32.6775 57.9776 33.7567 57.2086 34.8498C56.0839 36.4483 56.2675 38.6083 57.645 39.9858C58.3984 40.7392 59.4112 41.1556 60.4662 41.1556C60.5808 41.1556 60.6962 41.1506 60.8116 41.1408C61.993 41.0391 63.0625 40.4237 63.7462 39.4527C64.8501 37.885 65.8727 36.337 66.8075 34.8192C67.632 37.6391 68.0498 40.5631 68.0498 43.5398C68.0498 51.4886 65.0461 58.7481 60.1159 64.2462L60.4277 61.0769C60.4787 60.5578 60.3672 60.045 60.105 59.5942L56.9334 54.14C56.6283 53.6155 56.1425 53.2228 55.5658 53.0345L50.2845 51.31C50.2658 50.7291 50.0298 50.1728 49.6034 49.7464C49.0208 49.1638 48.1958 48.9345 47.3956 49.1338L37.7176 51.5428C36.9051 51.745 36.2612 52.372 36.0372 53.1787C35.9928 53.3391 35.9669 53.5017 35.9575 53.6641H33.8459C33.8166 53.6641 33.788 53.6536 33.7653 53.6344L28.4948 49.1597C28.4473 49.1194 28.4367 49.0519 28.4692 48.9991L29.2169 47.7884C29.7659 46.8992 29.6939 45.7552 29.0378 44.942L26.7616 42.1194C26.2905 41.5356 25.5903 41.2008 24.8402 41.2008H19.3217C18.46 41.2008 17.6492 41.6597 17.2056 42.3983L15.0616 45.9675C14.5375 46.8403 14.6081 47.9645 15.2377 48.765L17.0855 51.1134C17.1056 51.1389 17.1148 51.1706 17.1117 51.2027L16.4237 58.2445C16.3748 58.7477 16.4791 59.2469 16.7256 59.688L19.0275 63.8095C19.0412 63.8342 19.0462 63.8633 19.0416 63.8911L18.2855 68.3159C15.5111 66.2202 13.1245 63.6953 11.1787 60.7887C11.1542 60.7522 11.1278 60.7178 11.1002 60.685C11.0781 60.6397 11.0533 60.5955 11.0252 60.5528C9.8075 58.7006 8.78687 56.7094 7.99125 54.6345C7.97874 54.602 7.96265 54.5719 7.9475 54.5411C7.93703 54.4998 7.92453 54.4586 7.90937 54.4178C6.60984 50.9441 5.95093 47.2841 5.95093 43.5397C5.95093 38.9077 6.94781 34.4497 8.9139 30.2897C9.19046 29.7045 8.94015 29.0061 8.35515 28.7295C7.77031 28.4531 7.07156 28.7031 6.79484 29.2883C4.67984 33.7638 3.60734 38.5586 3.60734 43.5397C3.60734 47.4622 4.28234 51.2991 5.61015 54.9505C5.28296 55.5347 4.96765 56.1177 4.67062 56.6888C-1.585 68.695 0.426714 74.5378 3.21546 77.3248C4.99 79.0995 7.40734 79.9994 10.3998 79.9994C14.0678 79.9994 18.5934 78.6098 23.8516 75.8698C24.4242 75.5716 25.0033 75.2583 25.588 74.9308C29.2403 76.2589 33.0797 76.933 37.0008 76.933C55.4141 76.933 70.3942 61.9527 70.3942 43.5395C70.3942 39.6169 69.7189 35.7781 68.3898 32.1255C68.7158 31.5422 69.0325 30.9625 69.3303 30.3908ZM18.7712 58.5455C18.7587 58.5231 18.7534 58.4978 18.7559 58.4727L19.4439 51.4311C19.5059 50.7947 19.3225 50.1673 18.9269 49.6647L17.0792 47.3164C17.0473 47.2759 17.0436 47.2189 17.0702 47.1748L19.2142 43.6056C19.2367 43.5684 19.2775 43.5452 19.3211 43.5452H24.8395C24.8775 43.5452 24.913 43.5622 24.9367 43.5916L27.2128 46.4142C27.2461 46.4553 27.2495 46.5131 27.222 46.5578L26.4744 47.7683C25.8284 48.8144 26.04 50.1512 26.9773 50.947L32.2475 55.4214C32.6931 55.8 33.2605 56.0084 33.8453 56.0084H37.1945L37.5872 56.4011C31.7275 61.5486 25.8945 65.717 20.6269 68.5253L21.3511 64.2867C21.4458 63.7328 21.347 63.1575 21.073 62.6672L18.7712 58.5455ZM16.9902 70.2766C14.7545 71.2225 13.1164 71.6534 12.0328 71.8448C10.0286 72.1991 9.10234 71.9014 8.86984 71.6689C8.36046 71.1602 8.1464 68.5522 10.2642 63.5503C12.1789 66.1083 14.4317 68.3617 16.9902 70.2766ZM28.2766 73.348C30.0406 72.2611 31.8467 71.0558 33.6811 69.7388C34.2069 69.3613 34.327 68.6291 33.9497 68.1034C33.572 67.5777 32.8397 67.4577 32.3142 67.835C29.0006 70.2142 25.7886 72.2183 22.7676 73.7919C17.8473 76.3561 13.6858 77.6562 10.3989 77.6562C8.05062 77.6562 6.19093 76.9873 4.87156 75.6678C2.63734 73.4352 1.14937 68.518 6.74874 57.7714C6.75468 57.7597 6.76078 57.748 6.76703 57.7362C7.34171 58.9572 7.99031 60.143 8.70734 61.283C6.00734 67.082 5.44406 71.5602 7.21265 73.3262C9.20249 75.3189 14.4461 74.3952 21.2383 70.8555C27.0747 67.815 33.5891 63.1362 40.0775 57.3248C40.3173 57.11 40.4583 56.8059 40.467 56.4841C40.4759 56.1622 40.352 55.8509 40.1244 55.6233L38.3117 53.8105L47.935 51.4152L45.5394 61.0384L44.1272 59.6261C43.6864 59.1855 42.9781 59.1667 42.515 59.5834C40.5259 61.3722 38.4977 63.0877 36.4866 64.682C35.9794 65.0841 35.8942 65.8213 36.2962 66.3284C36.6981 66.8353 37.4353 66.9208 37.9425 66.5186C39.7123 65.1155 41.4947 63.6208 43.2523 62.0661L43.9026 62.7164C44.4945 63.3084 45.3634 63.537 46.1708 63.3133C46.9776 63.0892 47.6047 62.4455 47.807 61.6328L49.802 53.6184L54.838 55.2628C54.8672 55.2723 54.8917 55.2922 54.907 55.3186L58.0786 60.7728C58.0919 60.7956 58.0975 60.8214 58.0948 60.8477L57.5062 66.8334C52.0325 71.658 44.8526 74.5898 37 74.5898C34.023 74.5897 31.0975 74.1725 28.2766 73.348ZM33.3197 2.34375C36.2358 2.34375 38.6083 4.71625 38.6083 7.63234C38.6083 9.19984 36.7864 12.6516 33.7348 16.8655C33.6012 17.05 33.4175 17.0775 33.3198 17.0775C33.2223 17.0775 33.0386 17.0498 32.905 16.8655C29.8531 12.6517 28.0312 9.2 28.0312 7.63234C28.0312 4.71625 30.4037 2.34375 33.3197 2.34375ZM50.0809 30.2181L46.8562 34.3336C46.5173 34.7661 46.3308 35.3067 46.3308 35.8561V42.9623C46.3308 42.9977 46.3158 43.0314 46.2894 43.0552L42.0048 46.9112C41.9762 46.9369 41.9369 46.948 41.8991 46.9413L38.2872 46.2862C38.253 46.28 38.2226 46.2595 38.2042 46.2303L37.7097 45.4494C37.6825 45.4066 37.6841 45.352 37.7131 45.3108L39.7809 42.3819C40.0769 41.9631 40.2333 41.4708 40.2333 40.9578V34.8867C40.2333 34.2178 39.9566 33.5686 39.4739 33.1055L34.0184 27.8711C33.7359 27.6 33.3883 27.3977 33.0125 27.2859L30.1981 26.4497C30.1741 26.4425 30.1528 26.4284 30.1369 26.4089L27.3166 22.9412C26.9489 22.4891 26.4314 22.1808 25.8589 22.0728L20.1991 21.005C20.1548 20.9967 20.1183 20.9648 20.1039 20.9223L19.163 18.1275C21.868 16.2253 24.8712 14.7547 28.0626 13.7964C28.9728 15.34 30.0273 16.8886 31.0062 18.2402C31.5419 18.9797 32.4066 19.4214 33.3194 19.4214C34.2323 19.4214 35.097 18.9798 35.6326 18.2402C36.8712 16.5298 38.2303 14.5047 39.2652 12.5728C42.2258 12.7864 45.1266 13.4184 47.8936 14.4558C47.9336 14.4708 47.9739 14.4827 48.0142 14.4931C48.0409 14.5058 48.0666 14.52 48.0945 14.5308C50.1675 15.3256 52.1581 16.3464 54.0112 17.5647C54.0375 17.582 54.0653 17.5959 54.0926 17.6109C54.1175 17.6305 54.1423 17.6498 54.1691 17.6675C55.1283 18.3056 56.0628 19.0053 56.9467 19.747C57.1662 19.9312 57.4336 20.0212 57.6994 20.0212C58.0337 20.0212 58.3659 19.8789 58.5976 19.6027C59.0137 19.1069 58.9491 18.3677 58.4533 17.9517C57.9831 17.5572 57.4995 17.1741 57.0061 16.8042C60.5045 15.3209 62.6076 15.0737 63.6148 15.0737C64.4845 15.0737 64.973 15.2544 65.1292 15.4113C65.3608 15.6425 65.6584 16.5689 65.3042 18.5731C65.1126 19.6573 64.6812 21.2969 63.7341 23.5345C63.2958 22.9498 62.84 22.3775 62.3664 21.8247C61.9453 21.3333 61.2055 21.2759 60.7141 21.6973C60.2225 22.1184 60.1655 22.8583 60.5867 23.3497C61.298 24.1798 61.9676 25.0558 62.5875 25.9558L59.8314 29.2278C59.8076 29.2561 59.7728 29.2722 59.7359 29.2722H52.0236C51.26 29.272 50.5517 29.6169 50.0809 30.2181ZM61.8295 38.1034C61.5451 38.5075 61.1006 38.7634 60.61 38.8058C60.1172 38.8477 59.6522 38.6789 59.302 38.3286C58.7322 37.7588 58.6578 36.863 59.1251 36.1987C61.1787 33.2805 62.9248 30.4475 64.3153 27.7784C67.855 20.9859 68.7786 15.7427 66.7883 13.755C66.1108 13.0748 65.0433 12.7298 63.6153 12.7298C61.3364 12.7298 58.2781 13.5986 54.7411 15.2472C53.6009 14.5302 52.4156 13.8816 51.1958 13.307C51.2078 13.3006 51.22 13.2944 51.232 13.2881C61.9759 7.69031 66.8942 9.17797 69.1281 11.4122C71.3623 13.6448 72.8503 18.562 67.2515 29.3078C65.7959 32.1019 63.9719 35.0611 61.8295 38.1034Z" fill="white"/>
</svg>
