<svg width="68" height="80" viewBox="0 0 68 80" fill="none" xmlns="http://www.w3.org/2000/svg">
<path d="M47.6859 77.6563H6.10157C4.16564 77.6563 2.59064 76.0813 2.59064 74.1454V35.2594C2.59064 34.6121 2.06595 34.0875 1.41876 34.0875C0.771575 34.0875 0.246887 34.6121 0.246887 35.2594V74.1454C0.246887 77.3736 2.87329 80.0001 6.10157 80.0001H47.6859C48.3331 80.0001 48.8578 79.4755 48.8578 78.8282C48.8578 78.1808 48.3331 77.6563 47.6859 77.6563Z" fill="white"/>
<path d="M63.4563 6.93594H59.767V4.25516C59.767 1.90891 57.8581 0 55.5119 0C53.1656 0 51.2567 1.90891 51.2567 4.25516V6.93594H41.0453C40.3981 6.93594 39.8735 7.46047 39.8735 8.10781C39.8735 8.75516 40.3981 9.27969 41.0453 9.27969H52.3167C52.3536 9.28312 52.3908 9.28531 52.4286 9.28531C52.4664 9.28531 52.5036 9.28312 52.5405 9.27969H57.4233V9.89812C57.4233 10.952 56.5658 11.8095 55.5119 11.8095H52.4286C51.7814 11.8095 51.2567 12.3341 51.2567 12.9814C51.2567 13.6287 51.7814 14.1533 52.4286 14.1533H55.5119C57.8581 14.1533 59.767 12.2444 59.767 9.89812V9.27969H63.4563C64.5333 9.27969 65.4094 10.1558 65.4094 11.2328V22.0486H2.59064V11.2328C2.59064 10.1558 3.46673 9.27969 4.54376 9.27969H9.29298C9.32986 9.28312 9.36704 9.28531 9.40486 9.28531C9.44267 9.28531 9.47986 9.28312 9.51673 9.27969H14.3995V9.89812C14.3995 10.952 13.542 11.8095 12.4881 11.8095H9.40486C8.75767 11.8095 8.23298 12.3341 8.23298 12.9814C8.23298 13.6287 8.75767 14.1533 9.40486 14.1533H12.4881C14.8344 14.1533 16.7433 12.2444 16.7433 9.89812V9.27969H35.9375C36.5847 9.27969 37.1094 8.75516 37.1094 8.10781C37.1094 7.46047 36.5847 6.93594 35.9375 6.93594H16.7433V4.25516C16.7433 1.90891 14.8344 0 12.4881 0C10.1417 0 8.23298 1.90891 8.23298 4.25516V6.93594H4.54376C2.17439 6.93594 0.246887 8.86359 0.246887 11.2328V30.1516C0.246887 30.7989 0.771575 31.3234 1.41876 31.3234C2.06595 31.3234 2.59064 30.7989 2.59064 30.1516V24.4156H65.4094V74.1453C65.4094 76.0813 63.8344 77.6562 61.8984 77.6562H52.7938C52.1466 77.6562 51.6219 78.1808 51.6219 78.8281C51.6219 79.4755 52.1466 80 52.7938 80H61.8984C65.1267 80 67.7531 77.3736 67.7531 74.1453V11.2328C67.7531 8.86359 65.8256 6.93594 63.4563 6.93594ZM53.6005 6.93594V4.25516C53.6005 3.20125 54.458 2.34375 55.5119 2.34375C56.5658 2.34375 57.4233 3.20125 57.4233 4.25516V6.93594H53.6005ZM10.5767 4.25516C10.5767 3.20125 11.4342 2.34375 12.4881 2.34375C13.542 2.34375 14.3995 3.20125 14.3995 4.25516V6.93594H10.5767V4.25516Z" fill="white"/>
<path d="M30.7151 36.8303H36.9589C37.6061 36.8303 38.1308 36.3058 38.1308 35.6584V29.4147C38.1308 28.7673 37.6061 28.2428 36.9589 28.2428H30.7151C30.068 28.2428 29.5433 28.7673 29.5433 29.4147V35.6584C29.5433 36.3056 30.0678 36.8303 30.7151 36.8303ZM31.887 30.5865H35.787V34.4865H31.887V30.5865Z" fill="white"/>
<path d="M48.35 28.2428H42.1063C41.4591 28.2428 40.9344 28.7673 40.9344 29.4147V35.6584C40.9344 36.3058 41.4591 36.8303 42.1063 36.8303H48.35C48.9972 36.8303 49.5219 36.3058 49.5219 35.6584V29.4147C49.5219 28.7673 48.9972 28.2428 48.35 28.2428ZM47.1781 34.4865H43.2781V30.5865H47.1781V34.4865Z" fill="white"/>
<path d="M53.4975 36.8303H59.7411C60.3883 36.8303 60.913 36.3058 60.913 35.6584V29.4147C60.913 28.7673 60.3883 28.2428 59.7411 28.2428H53.4975C52.8503 28.2428 52.3256 28.7673 52.3256 29.4147V35.6584C52.3256 36.3056 52.8503 36.8303 53.4975 36.8303ZM54.6694 30.5865H58.5692V34.4865H54.6694V30.5865Z" fill="white"/>
<path d="M7.9328 48.1273H14.1764C14.8236 48.1273 15.3483 47.6028 15.3483 46.9554V40.7117C15.3483 40.0643 14.8236 39.5398 14.1764 39.5398H7.9328C7.28561 39.5398 6.76093 40.0643 6.76093 40.7117V46.9554C6.76093 47.6026 7.28561 48.1273 7.9328 48.1273ZM9.10468 41.8835H13.0045V45.7835H9.10468V41.8835Z" fill="white"/>
<path d="M19.3239 48.1273H25.5677C26.2149 48.1273 26.7395 47.6028 26.7395 46.9554V40.7117C26.7395 40.0643 26.2149 39.5398 25.5677 39.5398H19.3239C18.6767 39.5398 18.152 40.0643 18.152 40.7117V46.9554C18.152 47.6026 18.6767 48.1273 19.3239 48.1273ZM20.4958 41.8835H24.3958V45.7835H20.4958V41.8835Z" fill="white"/>
<path d="M29.5433 46.9554C29.5433 47.6028 30.068 48.1273 30.7151 48.1273H36.9589C37.6061 48.1273 38.1308 47.6028 38.1308 46.9554V40.7117C38.1308 40.0643 37.6061 39.5398 36.9589 39.5398H30.7151C30.068 39.5398 29.5433 40.0643 29.5433 40.7117V46.9554ZM31.887 41.8835H35.787V45.7835H31.887V41.8835Z" fill="white"/>
<path d="M48.35 39.5398H42.1063C41.4591 39.5398 40.9344 40.0643 40.9344 40.7117V46.9554C40.9344 47.6028 41.4591 48.1273 42.1063 48.1273H48.35C48.9972 48.1273 49.5219 47.6028 49.5219 46.9554V40.7117C49.5219 40.0643 48.9972 39.5398 48.35 39.5398ZM47.1781 45.7835H43.2781V41.8835H47.1781V45.7835Z" fill="white"/>
<path d="M52.3256 46.9554C52.3256 47.6028 52.8503 48.1273 53.4975 48.1273H59.7411C60.3883 48.1273 60.913 47.6028 60.913 46.9554V40.7117C60.913 40.0643 60.3883 39.5398 59.7411 39.5398H53.4975C52.8503 39.5398 52.3256 40.0643 52.3256 40.7117V46.9554ZM54.6694 41.8835H58.5692V45.7835H54.6694V41.8835Z" fill="white"/>
<path d="M6.76093 58.252C6.76093 58.8994 7.28561 59.4239 7.9328 59.4239H14.1764C14.8236 59.4239 15.3483 58.8994 15.3483 58.252V52.0083C15.3483 51.361 14.8236 50.8364 14.1764 50.8364H7.9328C7.28561 50.8364 6.76093 51.361 6.76093 52.0083V58.252ZM9.10468 53.1803H13.0045V57.0803H9.10468V53.1803Z" fill="white"/>
<path d="M18.152 58.252C18.152 58.8994 18.6767 59.4239 19.3239 59.4239H25.5677C26.2149 59.4239 26.7395 58.8994 26.7395 58.252V52.0083C26.7395 51.361 26.2149 50.8364 25.5677 50.8364H19.3239C18.6767 50.8364 18.152 51.361 18.152 52.0083V58.252ZM20.4958 53.1803H24.3958V57.0803H20.4958V53.1803Z" fill="white"/>
<path d="M29.5433 58.252C29.5433 58.8994 30.068 59.4239 30.7151 59.4239H36.9589C37.6061 59.4239 38.1308 58.8994 38.1308 58.252V52.0083C38.1308 51.361 37.6061 50.8364 36.9589 50.8364H30.7151C30.068 50.8364 29.5433 51.361 29.5433 52.0083V58.252ZM31.887 53.1803H35.787V57.0803H31.887V53.1803Z" fill="white"/>
<path d="M48.35 50.8365H42.1063C41.4591 50.8365 40.9344 51.3611 40.9344 52.0084V58.2522C40.9344 58.8995 41.4591 59.424 42.1063 59.424H48.35C48.9972 59.424 49.5219 58.8995 49.5219 58.2522V52.0084C49.5219 51.3611 48.9972 50.8365 48.35 50.8365ZM47.1781 57.0801H43.2781V53.1801H47.1781V57.0801Z" fill="white"/>
<path d="M52.3256 58.252C52.3256 58.8994 52.8503 59.4239 53.4975 59.4239H59.7411C60.3883 59.4239 60.913 58.8994 60.913 58.252V52.0083C60.913 51.361 60.3883 50.8364 59.7411 50.8364H53.4975C52.8503 50.8364 52.3256 51.361 52.3256 52.0083V58.252ZM54.6694 53.1803H58.5692V57.0803H54.6694V53.1803Z" fill="white"/>
<path d="M6.76093 69.5488C6.76093 70.1961 7.28561 70.7207 7.9328 70.7207H14.1764C14.8236 70.7207 15.3483 70.1961 15.3483 69.5488V63.3051C15.3483 62.6577 14.8236 62.1332 14.1764 62.1332H7.9328C7.28561 62.1332 6.76093 62.6577 6.76093 63.3051V69.5488ZM9.10468 64.4769H13.0045V68.3769H9.10468V64.4769Z" fill="white"/>
<path d="M18.152 69.5488C18.152 70.1961 18.6767 70.7207 19.3239 70.7207H25.5677C26.2149 70.7207 26.7395 70.1961 26.7395 69.5488V63.3051C26.7395 62.6577 26.2149 62.1332 25.5677 62.1332H19.3239C18.6767 62.1332 18.152 62.6577 18.152 63.3051V69.5488ZM20.4958 64.4769H24.3958V68.3769H20.4958V64.4769Z" fill="white"/>
<path d="M29.5433 69.5488C29.5433 70.1961 30.068 70.7207 30.7151 70.7207H36.9589C37.6061 70.7207 38.1308 70.1961 38.1308 69.5488V63.3051C38.1308 62.6577 37.6061 62.1332 36.9589 62.1332H30.7151C30.068 62.1332 29.5433 62.6577 29.5433 63.3051V69.5488ZM31.887 64.4769H35.787V68.3769H31.887V64.4769Z" fill="white"/>
</svg>
