<svg width="78" height="80" viewBox="0 0 78 80" fill="none" xmlns="http://www.w3.org/2000/svg">
<path d="M77.3609 3.9238L76.4819 1.75393C75.9004 0.318917 74.2599 -0.375778 72.825 0.205635L59.441 5.62742C58.1622 6.14555 57.2561 7.26587 57.0166 8.62417L48.163 58.8349C47.328 59.0241 46.5246 59.3129 45.7672 59.6888L50.9832 30.1072C51.0798 29.5597 50.9574 29.0072 50.6385 28.5517C50.3196 28.0963 49.8423 27.7924 49.2949 27.6958L14.8778 21.6271C14.3307 21.5309 13.7781 21.6532 13.3226 21.972C12.8671 22.2909 12.5634 22.7681 12.4668 23.3154L9.48851 40.2078C9.37601 40.8452 9.80163 41.453 10.439 41.5653C10.5079 41.5775 10.5763 41.5833 10.644 41.5833C11.202 41.5833 11.6963 41.1831 11.7967 40.6147L14.7297 23.9811L24.0926 25.632L22.0163 37.407C21.8272 38.4787 22.5455 39.5045 23.6173 39.6936L34.823 41.6696C34.9388 41.6899 35.0547 41.7 35.1701 41.7C35.5713 41.7 35.9624 41.5775 36.298 41.3425C36.7299 41.0402 37.018 40.5877 37.1096 40.0684L39.1859 28.2933L48.6296 29.9585L43.0567 61.5648C43.0539 61.5804 43.053 61.5959 43.0509 61.6115C42.4292 62.2148 41.8787 62.8948 41.415 63.6406L8.75209 57.8813L10.8729 45.8534C10.9854 45.216 10.5598 44.6082 9.92242 44.4958C9.28413 44.3835 8.67725 44.8091 8.5649 45.4465L6.4441 57.4744L4.13688 57.0675C3.39797 56.9374 2.6528 57.1025 2.03858 57.5327C1.42404 57.9629 1.01388 58.6068 0.883719 59.3454L0.477151 61.6507C0.346837 62.3895 0.511996 63.1348 0.942313 63.7492C1.37263 64.3636 2.01623 64.7737 2.75499 64.904L21.4174 68.1947C21.4863 68.2069 21.5547 68.2127 21.6224 68.2127C22.1804 68.2127 22.6748 67.8125 22.7751 67.2441C22.8876 66.6067 22.4619 65.9989 21.8246 65.8866L3.16218 62.5959C2.99734 62.5668 2.90359 62.4637 2.86234 62.405C2.82108 62.3462 2.7564 62.2228 2.78546 62.0579L3.19203 59.7524C3.22125 59.5877 3.32422 59.494 3.38297 59.4529C3.44187 59.4116 3.56562 59.3466 3.73 59.376L31.3599 64.2479L30.792 67.468L27.047 66.8077C26.4092 66.6956 25.8018 67.1209 25.6895 67.7583C25.5771 68.3956 26.0026 69.0035 26.64 69.1158L40.0271 71.4763C40.3198 72.8791 40.895 74.2218 41.7417 75.431C43.3831 77.7751 45.8391 79.3398 48.6572 79.8367C49.2841 79.9472 49.9074 80.0005 50.5229 80.0005C55.6214 80.0005 60.1532 76.3373 61.0683 71.1463C61.8602 66.6552 59.7158 62.3153 56.0209 60.0966L59.9664 37.7201C60.0789 37.0828 59.6533 36.475 59.016 36.3626C58.3777 36.2506 57.7706 36.6759 57.6584 37.3133L53.8176 59.0954C53.3525 58.9451 52.8728 58.8224 52.3781 58.7352C51.7774 58.6294 51.1799 58.5788 50.5893 58.5746L56.3706 25.7864L59.5908 26.3542L58.5742 32.1194C58.4617 32.7568 58.8874 33.3646 59.5247 33.477C60.1628 33.5898 60.7699 33.1638 60.8822 32.5263L64.4707 12.1756L75.8127 7.58103C77.2474 6.99946 77.9421 5.35898 77.3609 3.9238ZM34.8658 39.2972L24.3887 37.4498L26.3893 26.1041L36.8663 27.9514L34.8658 39.2972ZM33.6675 64.6545L40.3732 65.8369C40.2 66.3477 40.0631 66.878 39.9667 67.4253C39.8707 67.9696 39.8178 68.5146 39.8051 69.0569L33.0997 67.8745L33.6675 64.6545ZM51.9706 61.0431C56.5155 61.8445 59.5611 66.1939 58.7599 70.739C57.9584 75.2839 53.6095 78.3297 49.0638 77.5281C46.8621 77.14 44.9434 75.9176 43.6611 74.0863C42.3789 72.2551 41.8865 70.034 42.2747 67.8324C42.9898 63.7767 46.5297 60.9152 50.5132 60.9152C50.9938 60.9151 51.4813 60.9568 51.9706 61.0431ZM74.9325 5.40851L62.989 10.2467C62.6147 10.3983 62.3451 10.7317 62.2751 11.1294L59.9975 24.0458L56.7773 23.4779L59.3247 9.03105C59.4231 8.47292 59.7957 8.0126 60.321 7.79963L73.7049 2.37785C73.9421 2.28191 74.2136 2.3966 74.3097 2.63394L75.1886 4.80366C75.2847 5.041 75.1697 5.31226 74.9325 5.40851Z" fill="white"/>
</svg>
