<svg width="80" height="42" viewBox="0 0 80 42" fill="none" xmlns="http://www.w3.org/2000/svg">
<path d="M1.17188 19.4625C1.81922 19.4625 2.34375 18.938 2.34375 18.2906V2.36719H25.0266C26.7781 2.36719 28.2031 3.79219 28.2031 5.54375V8.01828C28.2031 8.66563 28.7277 9.19016 29.375 9.19016C30.0223 9.19016 30.5469 8.66563 30.5469 8.01828V5.54375C30.5469 3.79219 31.9719 2.36719 33.7234 2.36719H67.2937C67.9411 2.36719 68.4656 1.84266 68.4656 1.19531C68.4656 0.547969 67.9411 0.0234375 67.2937 0.0234375H33.7234C31.9595 0.0234375 30.3864 0.855 29.375 2.14656C28.3636 0.855 26.7905 0.0234375 25.0266 0.0234375H1.17188C0.524531 0.0234375 0 0.547969 0 1.19531V18.2906C0 18.938 0.524531 19.4625 1.17188 19.4625Z" fill="white"/>
<path d="M78.828 0.0234375H72.4015C71.7541 0.0234375 71.2296 0.547969 71.2296 1.19531C71.2296 1.84266 71.7541 2.36719 72.4015 2.36719H77.6562V39.6328H42.0812C41.4338 39.6328 40.9093 40.1573 40.9093 40.8047C40.9093 41.452 41.4338 41.9766 42.0812 41.9766H78.828C79.4754 41.9766 79.9999 41.452 79.9999 40.8047V1.19531C79.9999 0.547969 79.4754 0.0234375 78.828 0.0234375Z" fill="white"/>
<path d="M36.9734 39.6328H33.7234C31.9719 39.6328 30.5469 38.2078 30.5469 36.4562C30.5469 36.4298 30.5447 36.4039 30.543 36.3779C30.5447 36.3519 30.5469 36.3261 30.5469 36.2997V33.6694C30.5469 33.022 30.0223 32.4975 29.375 32.4975C28.7277 32.4975 28.2031 33.022 28.2031 33.6694V36.2997C28.2031 36.3261 28.2053 36.352 28.207 36.3779C28.2053 36.404 28.2031 36.4298 28.2031 36.4562C28.2031 38.2078 26.7781 39.6328 25.0266 39.6328H2.34375V23.3969C2.34375 22.7495 1.81922 22.225 1.17188 22.225C0.524531 22.225 0 22.7495 0 23.3969V40.8047C0 41.452 0.524531 41.9765 1.17188 41.9765H25.0266C26.7905 41.9765 28.3636 41.145 29.375 39.8534C30.3864 41.145 31.9595 41.9765 33.7234 41.9765H36.9734C37.6208 41.9765 38.1453 41.452 38.1453 40.8047C38.1453 40.1573 37.6206 39.6328 36.9734 39.6328Z" fill="white"/>
<path d="M30.5469 12.4583C30.5469 11.8109 30.0223 11.2864 29.375 11.2864C28.7277 11.2864 28.2031 11.8109 28.2031 12.4583V15.0886C28.2031 15.7359 28.7277 16.2604 29.375 16.2604C30.0223 16.2604 30.5469 15.7359 30.5469 15.0886V12.4583Z" fill="white"/>
<path d="M30.5469 19.5286C30.5469 18.8812 30.0223 18.3567 29.375 18.3567C28.7277 18.3567 28.2031 18.8812 28.2031 19.5286V22.1589C28.2031 22.8062 28.7277 23.3308 29.375 23.3308C30.0223 23.3308 30.5469 22.8062 30.5469 22.1589V19.5286Z" fill="white"/>
<path d="M29.375 25.427C28.7277 25.427 28.2031 25.9515 28.2031 26.5989V29.2292C28.2031 29.8765 28.7277 30.4011 29.375 30.4011C30.0223 30.4011 30.5469 29.8765 30.5469 29.2292V26.5989C30.5469 25.9515 30.0223 25.427 29.375 25.427Z" fill="white"/>
<path d="M7.7663 29.9034C7.98349 30.0796 8.24443 30.1652 8.5038 30.1652C8.84489 30.1652 9.18317 30.0171 9.41458 29.7316L22.3832 13.7448C22.7908 13.2421 22.714 12.5043 22.2113 12.0965C21.7086 11.6884 20.9707 11.7656 20.563 12.2684L7.59443 28.2552C7.18677 28.7577 7.26364 29.4957 7.7663 29.9034Z" fill="white"/>
<path d="M14.1033 15.1741C14.1033 13.0017 12.3359 11.2344 10.1636 11.2344C7.99122 11.2344 6.22388 13.0017 6.22388 15.1741C6.22388 17.3463 7.99122 19.1136 10.1636 19.1136C12.3359 19.1136 14.1033 17.3463 14.1033 15.1741ZM8.56763 15.1741C8.56763 14.2941 9.28356 13.5781 10.1636 13.5781C11.0436 13.5781 11.7595 14.2941 11.7595 15.1741C11.7595 16.0541 11.0436 16.7698 10.1636 16.7698C9.28356 16.7698 8.56763 16.0541 8.56763 15.1741Z" fill="white"/>
<path d="M19.8141 30.7657C21.9863 30.7657 23.7536 28.9984 23.7536 26.826C23.7536 24.6538 21.9863 22.8865 19.8141 22.8865C17.6417 22.8865 15.8744 24.6538 15.8744 26.826C15.8744 28.9984 17.6416 30.7657 19.8141 30.7657ZM19.8141 25.2302C20.6941 25.2302 21.4099 25.946 21.4099 26.826C21.4099 27.706 20.6939 28.4219 19.8141 28.4219C18.9342 28.4219 18.2181 27.706 18.2181 26.826C18.2181 25.946 18.9341 25.2302 19.8141 25.2302Z" fill="white"/>
<path d="M41.5968 31.9672C41.5968 34.3364 43.5245 36.2641 45.8937 36.2641H61.7624C64.1317 36.2641 66.0593 34.3364 66.0593 31.9672V22.1235H67.239C67.8864 22.1235 68.4109 21.5989 68.4109 20.9516V13.1391C68.4109 12.4917 67.8864 11.9672 67.239 11.9672H60.5559C60.8234 11.4183 60.974 10.8022 60.974 10.1516C60.974 7.8583 59.1084 5.99268 56.8153 5.99268C55.6438 5.99268 54.5848 6.48018 53.8282 7.26221C53.0717 6.48033 52.0126 5.99268 50.8412 5.99268C48.5481 5.99268 46.6824 7.8583 46.6824 10.1516C46.6824 10.8022 46.8329 11.4183 47.1006 11.9672H40.4171C39.7698 11.9672 39.2452 12.4917 39.2452 13.1391V20.9516C39.2452 21.5989 39.7698 22.1235 40.4171 22.1235H41.5968V31.9672ZM43.9406 31.9672V22.1235H50.1562V33.9203H45.8937C44.8166 33.9203 43.9406 33.0442 43.9406 31.9672ZM55.1562 14.311V33.9197H52.4999V14.311H55.1562ZM63.7156 31.9672C63.7156 33.0442 62.8395 33.9203 61.7624 33.9203H57.4999V22.1235H63.7156V31.9672ZM66.0671 19.7797H64.8874H57.4999V14.311H66.0671V19.7797ZM56.8151 8.33643C57.8159 8.33643 58.6301 9.1508 58.6301 10.1516C58.6301 11.1524 57.8159 11.9666 56.8151 11.9666H54.9999V10.1516C54.9999 9.1508 55.8143 8.33643 56.8151 8.33643ZM50.841 8.33643C51.8418 8.33643 52.6562 9.1508 52.6562 10.1516V11.9666H50.841C49.8402 11.9666 49.026 11.1524 49.026 10.1516C49.026 9.1508 49.8402 8.33643 50.841 8.33643ZM41.589 14.311H50.1562V19.7797H42.7687H41.589V14.311Z" fill="white"/>
</svg>
