<svg width="80" height="44" viewBox="0 0 80 44" fill="none" xmlns="http://www.w3.org/2000/svg">
<path d="M28.5416 36.9328H23.8619C23.1158 34.9767 21.2211 33.583 19.0063 33.583C17.3852 33.583 15.9353 34.3297 14.9819 35.4969C14.0244 34.3272 12.57 33.583 10.9589 33.583C8.74391 33.583 6.84938 34.9767 6.10328 36.9328H2.73438C2.51891 36.9328 2.34375 36.7577 2.34375 36.5422V32.143C2.34375 31.9275 2.51891 31.7524 2.73438 31.7524H9.58328C10.2306 31.7524 10.7552 31.2278 10.7552 30.5805C10.7552 29.9332 10.2306 29.4086 9.58328 29.4086H4.65484V6.89816H52.3403V11.4791C52.3403 12.1264 52.8648 12.651 53.5122 12.651C54.1595 12.651 54.6841 12.1264 54.6841 11.4791V2.20456C54.6841 1.00331 53.7067 0.026123 52.5056 0.026123H4.48953C3.28828 0.026123 2.31109 1.00347 2.31109 2.20456V29.4449C1.00422 29.6494 0 30.7796 0 32.143V36.5422C0 38.0499 1.22672 39.2766 2.73438 39.2766H5.78766C6.03922 41.9086 8.26203 43.9739 10.9589 43.9739C12.5728 43.9739 14.0262 43.2305 14.9827 42.0613C15.9362 43.2278 17.3855 43.9739 19.0063 43.9739C21.7031 43.9739 23.9259 41.9085 24.1775 39.2766H28.5417C29.1891 39.2766 29.7136 38.7521 29.7136 38.1047C29.7136 37.4574 29.1889 36.9328 28.5416 36.9328ZM4.65484 2.36972H52.3403V4.55425H4.65484V2.36972ZM13.8052 38.9583C13.7125 40.4566 12.4623 41.6303 10.9589 41.6303C9.38641 41.6303 8.10703 40.351 8.10703 38.7786C8.10703 37.2061 9.38641 35.9268 10.9589 35.9268C12.4544 35.9268 13.7041 37.0938 13.8041 38.5835C13.8056 38.6061 13.8111 38.6275 13.8139 38.6497C13.8128 38.6927 13.8106 38.7353 13.8106 38.7786C13.8106 38.8188 13.8128 38.8585 13.8137 38.8985C13.8114 38.9186 13.8064 38.9378 13.8052 38.9583ZM19.0063 41.6303C17.4338 41.6303 16.1544 40.351 16.1544 38.7786C16.1544 37.2061 17.4338 35.9268 19.0063 35.9268C20.5788 35.9268 21.8581 37.2061 21.8581 38.7786C21.8581 40.351 20.5788 41.6303 19.0063 41.6303Z" fill="white"/>
<path d="M10.9589 37.6069H10.8108C10.1634 37.6069 9.63889 38.1315 9.63889 38.7788C9.63889 39.4262 10.1634 39.9507 10.8108 39.9507H10.9589C11.6062 39.9507 12.1308 39.4262 12.1308 38.7788C12.1308 38.1315 11.6061 37.6069 10.9589 37.6069Z" fill="white"/>
<path d="M19.0062 37.6069H18.8581C18.2107 37.6069 17.6862 38.1315 17.6862 38.7788C17.6862 39.4262 18.2107 39.9507 18.8581 39.9507H19.0062C19.6536 39.9507 20.1781 39.4262 20.1781 38.7788C20.1781 38.1315 19.6534 37.6069 19.0062 37.6069Z" fill="white"/>
<path d="M41.9723 37.6069H41.8243C41.177 37.6069 40.6525 38.1315 40.6525 38.7788C40.6525 39.4262 41.177 39.9507 41.8243 39.9507H41.9723C42.6197 39.9507 43.1442 39.4262 43.1442 38.7788C43.1442 38.1315 42.6197 37.6069 41.9723 37.6069Z" fill="white"/>
<path d="M50.0197 37.6069H49.8718C49.2244 37.6069 48.6999 38.1315 48.6999 38.7788C48.6999 39.4262 49.2244 39.9507 49.8718 39.9507H50.0197C50.6671 39.9507 51.1916 39.4262 51.1916 38.7788C51.1916 38.1315 50.6671 37.6069 50.0197 37.6069Z" fill="white"/>
<path d="M78.9914 22.1687L77.6367 21.0664L75.5181 11.5159C75.5164 11.5072 75.5142 11.4987 75.5123 11.4901L74.7905 8.23576C74.5109 6.97435 73.4131 6.09342 72.1209 6.09342H67.6302V3.93061C67.6302 3.28326 67.1056 2.75873 66.4583 2.75873C65.8109 2.75873 65.2864 3.28326 65.2864 3.93061V6.09342H64.3489V1.22217C64.3489 0.574824 63.8244 0.050293 63.177 0.050293C62.5297 0.050293 62.0052 0.574824 62.0052 1.22217V6.09342H61.1541C59.6464 6.09342 58.4197 7.32014 58.4197 8.82779V21.0445H54.6841V16.7917C54.6841 16.1444 54.1595 15.6198 53.5122 15.6198C52.8648 15.6198 52.3403 16.1444 52.3403 16.7917V25.5228H49.4284V10.7189C49.4284 9.67842 48.5819 8.83185 47.5414 8.83185H44.768C43.7275 8.83185 42.8809 9.67842 42.8809 10.7189V25.5228H40.5998V10.7189C40.5998 9.67842 39.7533 8.83185 38.7128 8.83185H35.9394C34.8989 8.83185 34.0525 9.67842 34.0525 10.7189V25.9795C34.0525 27.02 34.8989 27.8665 35.9394 27.8665H52.3403V29.4086H14.8959C14.2486 29.4086 13.7241 29.9331 13.7241 30.5805C13.7241 31.2278 14.2486 31.7523 14.8959 31.7523H58.4197V36.9328H54.8755C54.1294 34.9767 52.2347 33.583 50.0198 33.583C48.3986 33.583 46.9489 34.3297 45.9955 35.497C45.038 34.3273 43.5836 33.583 41.9725 33.583C39.7575 33.583 37.863 34.9767 37.1169 36.9328H33.8544C33.207 36.9328 32.6825 37.4573 32.6825 38.1047C32.6825 38.752 33.207 39.2765 33.8544 39.2765H36.8012C37.0528 41.9086 39.2756 43.9739 41.9725 43.9739C43.5897 43.9739 45.042 43.2314 45.9975 42.0626C46.9511 43.2283 48.3998 43.9739 50.0198 43.9739C52.7167 43.9739 54.9395 41.9084 55.1911 39.2765L63.7736 39.2767C64.0252 41.9086 66.2478 43.974 68.9447 43.974C71.6416 43.974 73.8642 41.9087 74.1159 39.2767H77.2659C78.7736 39.2767 80.0003 38.05 80.0003 36.5423V24.2897C80 23.4634 79.6323 22.6904 78.9914 22.1687ZM45.2247 11.1756H47.0847V25.5228H45.2247V11.1756ZM36.3962 11.1756H38.2561V25.5228H36.3962V11.1756ZM69.9222 16.0278C69.2748 16.0278 68.7503 16.5523 68.7503 17.1997V20.5467H67.5781V12.9153H73.4278L75.1206 20.5467H71.0939V17.1997C71.0941 16.5525 70.5695 16.0278 69.9222 16.0278ZM61.1541 8.43717H62.0052V12.3419H60.7634V8.82779C60.7634 8.61232 60.9386 8.43717 61.1541 8.43717ZM54.6841 23.3883H58.4197V25.5228H54.6841V23.3883ZM60.7634 23.3883H62.0052V25.5228H60.7634V23.3883ZM54.6841 29.4086V27.8665H58.4197V29.4086H54.6841ZM44.8197 38.9414C44.7353 40.449 43.4847 41.6303 41.9723 41.6303C40.3998 41.6303 39.1205 40.3509 39.1205 38.7786C39.1205 37.2061 40.3998 35.9267 41.9723 35.9267C43.4677 35.9267 44.7175 37.0937 44.8177 38.5833C44.8192 38.6065 44.8245 38.6284 44.8275 38.6512C44.8264 38.6937 44.8242 38.7359 44.8242 38.7786C44.8242 38.8147 44.8262 38.8503 44.827 38.8864C44.825 38.9048 44.8206 38.9225 44.8197 38.9414ZM50.0197 41.6303C48.4473 41.6303 47.168 40.3509 47.168 38.7786C47.168 37.2061 48.4473 35.9267 50.0197 35.9267C51.5922 35.9267 52.8716 37.2061 52.8716 38.7786C52.8716 40.3509 51.5922 41.6303 50.0197 41.6303ZM68.9444 41.6303C67.372 41.6303 66.0927 40.3509 66.0927 38.7786C66.0927 37.2061 67.372 35.9267 68.9444 35.9267C70.5169 35.9267 71.7962 37.2061 71.7962 38.7786C71.7962 40.3509 70.517 41.6303 68.9444 41.6303ZM77.2656 36.933H73.8002C73.0541 34.9767 71.1594 33.583 68.9444 33.583C66.7294 33.583 64.8348 34.9769 64.0887 36.933H60.7634V27.8665H63.177C63.8244 27.8665 64.3489 27.342 64.3489 26.6947V22.2164C64.3489 21.569 63.8244 21.0445 63.177 21.0445H60.7634V14.6858H63.177C63.8244 14.6858 64.3489 14.1612 64.3489 13.5139V8.43732H72.1209C72.3056 8.43732 72.4623 8.5631 72.5022 8.74326L72.9078 10.5717H66.4062C65.7589 10.5717 65.2344 11.0962 65.2344 11.7436V21.7187C65.2344 22.3661 65.7589 22.8906 66.4062 22.8906H76.165L77.512 23.9869C77.6037 24.0614 77.6562 24.1719 77.6562 24.2898V28.592H74.5312C73.8839 28.592 73.3594 29.1165 73.3594 29.7639C73.3594 30.4112 73.8839 30.9358 74.5312 30.9358H77.6562V31.717H76.1125C75.4652 31.717 74.9406 32.2415 74.9406 32.8889C74.9406 33.5362 75.4652 34.0608 76.1125 34.0608H77.6562V36.5425C77.6562 36.7578 77.4811 36.933 77.2656 36.933Z" fill="white"/>
<path d="M68.9444 37.6069H68.7964C68.149 37.6069 67.6245 38.1315 67.6245 38.7788C67.6245 39.4262 68.149 39.9507 68.7964 39.9507H68.9444C69.5917 39.9507 70.1162 39.4262 70.1162 38.7788C70.1162 38.1315 69.5917 37.6069 68.9444 37.6069Z" fill="white"/>
<path d="M9.45393 8.83203C8.41346 8.83203 7.56689 9.67859 7.56689 10.7191V25.9797C7.56689 27.0202 8.41346 27.8667 9.45393 27.8667H12.2274C13.2678 27.8667 14.1142 27.0202 14.1142 25.9797V10.7191C14.1142 9.67859 13.2678 8.83203 12.2274 8.83203H9.45393ZM11.7705 25.523H9.91064V11.1758H11.7705V25.523Z" fill="white"/>
<path d="M18.2824 8.83203C17.2419 8.83203 16.3953 9.67859 16.3953 10.7191V25.9797C16.3953 27.0202 17.2419 27.8667 18.2824 27.8667H21.0558C22.0963 27.8667 22.9428 27.0202 22.9428 25.9797V10.7191C22.9428 9.67859 22.0963 8.83203 21.0558 8.83203H18.2824ZM20.5991 25.523H18.7391V11.1758H20.5991V25.523Z" fill="white"/>
<path d="M27.111 8.83203C26.0705 8.83203 25.2239 9.67859 25.2239 10.7191V25.9797C25.2239 27.0202 26.0705 27.8667 27.111 27.8667H29.8844C30.9249 27.8667 31.7714 27.0202 31.7714 25.9797V10.7191C31.7714 9.67859 30.9249 8.83203 29.8844 8.83203H27.111ZM29.4277 25.523H27.5677V11.1758H29.4277V25.523Z" fill="white"/>
<path d="M31.1959 33.583H28.2631C27.6157 33.583 27.0912 34.1075 27.0912 34.7549C27.0912 35.4022 27.6157 35.9268 28.2631 35.9268H31.1959C31.8432 35.9268 32.3678 35.4022 32.3678 34.7549C32.3678 34.1075 31.8432 33.583 31.1959 33.583Z" fill="white"/>
</svg>
