<svg width="66" height="80" viewBox="0 0 66 80" fill="none" xmlns="http://www.w3.org/2000/svg">
<path d="M63.9859 22.75C64.6331 22.75 65.1578 22.2253 65.1578 21.5781V12.3984C65.1578 11.7512 64.6331 11.2266 63.9859 11.2266H59.0297V6.78594C59.0297 6.13875 58.505 5.61406 57.8578 5.61406H52.9031V1.17188C52.9031 0.524687 52.3784 0 51.7312 0H31.3406C30.6934 0 30.1687 0.524687 30.1687 1.17188C30.1687 1.81906 30.6934 2.34375 31.3406 2.34375H50.5594V5.61406H8.14216C7.49498 5.61406 6.97029 6.13875 6.97029 6.78594V38.2172C6.97029 38.8644 7.49498 39.3891 8.14216 39.3891C8.78935 39.3891 9.31404 38.8644 9.31404 38.2172V7.95781H56.6859V11.2266H14.2687C13.6215 11.2266 13.0969 11.7512 13.0969 12.3984V72.0422H9.31404V43.325C9.31404 42.6778 8.78935 42.1531 8.14216 42.1531C7.49498 42.1531 6.97029 42.6778 6.97029 43.325V66.4297H3.18591V2.34375H26.2328C26.88 2.34375 27.4047 1.81906 27.4047 1.17188C27.4047 0.524687 26.88 0 26.2328 0H2.01404C1.36685 0 0.842163 0.524687 0.842163 1.17188V67.6016C0.842163 68.2487 1.36685 68.7734 2.01404 68.7734H6.97029V73.2141C6.97029 73.8613 7.49498 74.3859 8.14216 74.3859H13.0969V78.8281C13.0969 79.4753 13.6215 80 14.2687 80H63.9859C64.6331 80 65.1578 79.4753 65.1578 78.8281V26.6859C65.1578 26.0387 64.6331 25.5141 63.9859 25.5141C63.3387 25.5141 62.814 26.0387 62.814 26.6859V77.6562H15.4406V13.5703H62.814V21.5781C62.814 22.2253 63.3387 22.75 63.9859 22.75Z" fill="white"/>
<path d="M59.0297 18.7672C59.0297 18.12 58.505 17.5953 57.8578 17.5953H21.3823C20.7351 17.5953 20.2104 18.12 20.2104 18.7672V30.4855C20.2104 31.1327 20.7351 31.6574 21.3823 31.6574H57.8578C58.505 31.6574 59.0297 31.1327 59.0297 30.4855V18.7672ZM56.6859 29.3136H22.5542V19.9391H56.6859V29.3136Z" fill="white"/>
<path d="M38.3906 36.198C38.3906 35.5508 37.8659 35.0261 37.2187 35.0261H21.3823C20.7351 35.0261 20.2104 35.5508 20.2104 36.198V51.198C20.2104 51.8452 20.7351 52.3699 21.3823 52.3699H37.2187C37.8659 52.3699 38.3906 51.8452 38.3906 51.198V36.198ZM36.0469 50.0261H22.5542V37.3699H36.0469V50.0261Z" fill="white"/>
<path d="M57.8578 35.0261H43.3647C42.7175 35.0261 42.1928 35.5508 42.1928 36.198C42.1928 36.8452 42.7175 37.3699 43.3647 37.3699H57.8578C58.505 37.3699 59.0297 36.8452 59.0297 36.198C59.0297 35.5508 58.505 35.0261 57.8578 35.0261Z" fill="white"/>
<path d="M57.8578 40.0261H43.3647C42.7175 40.0261 42.1928 40.5508 42.1928 41.198C42.1928 41.8452 42.7175 42.3699 43.3647 42.3699H57.8578C58.505 42.3699 59.0297 41.8452 59.0297 41.198C59.0297 40.5508 58.505 40.0261 57.8578 40.0261Z" fill="white"/>
<path d="M57.8578 45.0261H43.3647C42.7175 45.0261 42.1928 45.5508 42.1928 46.198C42.1928 46.8452 42.7175 47.3699 43.3647 47.3699H57.8578C58.505 47.3699 59.0297 46.8452 59.0297 46.198C59.0297 45.5508 58.505 45.0261 57.8578 45.0261Z" fill="white"/>
<path d="M57.8578 50.0261H43.3647C42.7175 50.0261 42.1928 50.5508 42.1928 51.198C42.1928 51.8452 42.7175 52.3699 43.3647 52.3699H57.8578C58.505 52.3699 59.0297 51.8452 59.0297 51.198C59.0297 50.5508 58.505 50.0261 57.8578 50.0261Z" fill="white"/>
<path d="M57.8578 55.0261H43.3647C42.7175 55.0261 42.1928 55.5508 42.1928 56.198C42.1928 56.8452 42.7175 57.3699 43.3647 57.3699H57.8578C58.505 57.3699 59.0297 56.8452 59.0297 56.198C59.0297 55.5508 58.505 55.0261 57.8578 55.0261Z" fill="white"/>
<path d="M57.8578 60.0261H43.3647C42.7175 60.0261 42.1928 60.5508 42.1928 61.198C42.1928 61.8452 42.7175 62.3699 43.3647 62.3699H57.8578C58.505 62.3699 59.0297 61.8452 59.0297 61.198C59.0297 60.5508 58.505 60.0261 57.8578 60.0261Z" fill="white"/>
<path d="M57.8578 65.0261H43.3647C42.7175 65.0261 42.1928 65.5508 42.1928 66.198C42.1928 66.8452 42.7175 67.3699 43.3647 67.3699H57.8578C58.505 67.3699 59.0297 66.8452 59.0297 66.198C59.0297 65.5508 58.505 65.0261 57.8578 65.0261Z" fill="white"/>
<path d="M57.8578 70.0261H43.3647C42.7175 70.0261 42.1928 70.5508 42.1928 71.198C42.1928 71.8452 42.7175 72.3699 43.3647 72.3699H57.8578C58.505 72.3699 59.0297 71.8452 59.0297 71.198C59.0297 70.5508 58.505 70.0261 57.8578 70.0261Z" fill="white"/>
<path d="M37.2187 55.0261H21.3823C20.7351 55.0261 20.2104 55.5508 20.2104 56.198C20.2104 56.8452 20.7351 57.3699 21.3823 57.3699H37.2187C37.8659 57.3699 38.3906 56.8452 38.3906 56.198C38.3906 55.5508 37.8659 55.0261 37.2187 55.0261Z" fill="white"/>
<path d="M37.2187 60.0261H21.3823C20.7351 60.0261 20.2104 60.5508 20.2104 61.198C20.2104 61.8452 20.7351 62.3699 21.3823 62.3699H37.2187C37.8659 62.3699 38.3906 61.8452 38.3906 61.198C38.3906 60.5508 37.8659 60.0261 37.2187 60.0261Z" fill="white"/>
<path d="M37.2187 65.0261H21.3823C20.7351 65.0261 20.2104 65.5508 20.2104 66.198C20.2104 66.8452 20.7351 67.3699 21.3823 67.3699H37.2187C37.8659 67.3699 38.3906 66.8452 38.3906 66.198C38.3906 65.5508 37.8659 65.0261 37.2187 65.0261Z" fill="white"/>
<path d="M37.2187 70.0261H21.3823C20.7351 70.0261 20.2104 70.5508 20.2104 71.198C20.2104 71.8452 20.7351 72.3699 21.3823 72.3699H37.2187C37.8659 72.3699 38.3906 71.8452 38.3906 71.198C38.3906 70.5508 37.8659 70.0261 37.2187 70.0261Z" fill="white"/>
</svg>
