<svg width="80" height="76" viewBox="0 0 80 76" fill="none" xmlns="http://www.w3.org/2000/svg">
<path d="M74.4456 0.852661H45.6767C45.0294 0.852661 44.5049 1.37717 44.5049 2.02448C44.5049 2.67179 45.0294 3.19629 45.6767 3.19629H74.4456C76.216 3.19629 77.6564 4.63669 77.6564 6.40707V36.5823C77.6564 38.3526 76.216 39.793 74.4456 39.793H69.8505C69.6037 39.793 69.363 39.871 69.1632 40.0158L61.1728 45.8032V40.9648C61.1728 40.3175 60.6483 39.793 60.001 39.793H34.5664C32.7958 39.793 31.3556 38.3526 31.3556 36.5823V6.40707C31.3556 4.63669 32.796 3.19629 34.5664 3.19629H40.5707C41.2181 3.19629 41.7426 2.67179 41.7426 2.02448C41.7426 1.37717 41.2181 0.852661 40.5707 0.852661H34.5664C31.5036 0.852661 29.012 3.34425 29.012 6.40707V36.5823C29.012 39.6451 31.5037 42.1367 34.5664 42.1367H58.8292V48.0989C58.8292 48.5391 59.0761 48.9423 59.4682 49.1426C59.8838 49.3407 60.2905 49.3091 60.6885 49.048L70.2303 42.1368H74.4456C77.5084 42.1368 80 39.6452 80 36.5824V6.40707C80 3.34441 77.5083 0.852661 74.4456 0.852661Z" fill="white"/>
<path d="M68.0583 62.7909C67.8139 61.0444 66.786 59.5597 65.235 58.7145L60.024 55.8755C59.4558 55.5653 58.7441 55.7753 58.4344 56.344C58.1251 56.9123 58.3347 57.624 58.9031 57.9335L64.1135 60.7724C65.005 61.258 65.5958 62.1108 65.737 63.1137C65.7378 63.1201 65.7386 63.1265 65.7395 63.1328C65.8762 64.1458 65.5314 65.1341 64.7939 65.8431L64.0258 66.5806L44.7884 55.756L47.0492 53.7673C48.0137 52.9187 49.4177 52.762 50.544 53.3773L53.7954 55.1493C54.3637 55.4588 55.0754 55.2494 55.3852 54.681C55.6947 54.1128 55.4853 53.4011 54.9169 53.0912L51.6663 51.3198C49.6799 50.2351 47.202 50.5112 45.5015 52.0074L40.2328 56.6417C39.1537 57.5909 37.5786 57.679 36.4029 56.8554C28.467 51.2959 22.704 45.1796 18.7846 38.1579C18.1236 36.9724 18.3083 35.5103 19.2437 34.5198L23.4142 30.109C24.9692 28.4625 25.3338 25.9959 24.3213 23.971L17.3032 9.93484C16.5214 8.36914 15.0855 7.2906 13.3639 6.97561C11.6412 6.66 9.91547 7.16107 8.62866 8.34929L5.96317 10.8118C3.01676 13.5336 1.06686 17.0534 0.324398 20.9904C-0.41947 24.9339 0.121909 28.912 1.88979 32.4959C1.8976 32.5124 1.90494 32.5268 1.91104 32.5387C3.03129 34.8042 4.24264 37.0196 5.50913 39.1196C5.72053 39.473 5.94849 39.8464 6.18629 40.2297C6.52768 40.7794 7.24998 40.9484 7.79996 40.6072C8.34977 40.2658 8.51883 39.5433 8.17759 38.9935C7.94651 38.6212 7.72527 38.2587 7.51825 37.9128C6.28456 35.8671 5.10619 33.7122 4.01577 31.5078C4.00968 31.495 4.00343 31.4825 3.99702 31.47C0.916556 25.237 2.29289 17.5891 7.32654 12.7517L17.8943 32.536L17.5404 32.9104C15.8984 34.6484 15.5758 37.2161 16.7378 39.2999C20.8337 46.6378 26.8262 53.0081 35.0583 58.7752C36.0032 59.4369 37.0946 59.7634 38.1822 59.7634C39.4707 59.7634 40.7538 59.3047 41.7807 58.4014L42.924 57.3959L62.2602 68.2759L62.2406 68.2947C57.2565 73.0832 49.7902 74.173 43.662 71.0063C30.379 64.1404 19.5808 55.0643 11.5673 44.0308C11.1868 43.507 10.454 43.3906 9.93047 43.7712C9.40675 44.1517 9.29066 44.8843 9.67095 45.408C17.9012 56.74 28.9753 66.0531 42.5857 73.0887C45.2648 74.473 48.1659 75.1473 51.0479 75.1473C55.7172 75.1473 60.3348 73.376 63.8638 69.9854L66.4174 67.5333C67.6911 66.3085 68.2911 64.6063 68.0669 62.8573C68.0647 62.835 68.0617 62.8131 68.0583 62.7909ZM9.10239 11.1023L10.2189 10.0709C10.9589 9.38768 11.951 9.10004 12.942 9.28096C13.9317 9.46205 14.7571 10.082 15.2068 10.9826L22.2252 25.0194C22.7992 26.1674 22.5923 27.5661 21.7108 28.4994L19.592 30.7403L9.10239 11.1023Z" fill="white"/>
<path d="M70.554 22.6054C70.554 20.3483 68.7177 18.512 66.4607 18.512C64.2037 18.512 62.3674 20.3483 62.3674 22.6054C62.3674 24.8623 64.2037 26.6986 66.4607 26.6986C68.7177 26.6986 70.554 24.8623 70.554 22.6054ZM64.7109 22.6054C64.7109 21.6406 65.4957 20.8556 66.4605 20.8556C67.4253 20.8556 68.2103 21.6406 68.2103 22.6054C68.2103 23.5701 67.4253 24.355 66.4605 24.355C65.4957 24.355 64.7109 23.5701 64.7109 22.6054Z" fill="white"/>
<path d="M58.5996 22.6054C58.5996 20.3483 56.7633 18.512 54.5063 18.512C52.2493 18.512 50.413 20.3483 50.413 22.6054C50.413 24.8623 52.2493 26.6986 54.5063 26.6986C56.7633 26.6986 58.5996 24.8623 58.5996 22.6054ZM52.7564 22.6054C52.7564 21.6406 53.5414 20.8556 54.5062 20.8556C55.471 20.8556 56.2558 21.6406 56.2558 22.6054C56.2558 23.5701 55.471 24.355 54.5062 24.355C53.5414 24.355 52.7564 23.5701 52.7564 22.6054Z" fill="white"/>
<path d="M38.4585 22.6054C38.4585 24.8623 40.2947 26.6986 42.5519 26.6986C44.8091 26.6986 46.6453 24.8623 46.6453 22.6054C46.6453 20.3483 44.8089 18.512 42.5519 18.512C40.2948 18.512 38.4585 20.3483 38.4585 22.6054ZM42.5519 20.8556C43.5167 20.8556 44.3016 21.6406 44.3016 22.6054C44.3016 23.5701 43.5167 24.355 42.5519 24.355C41.5871 24.355 40.8023 23.5701 40.8023 22.6054C40.8023 21.6406 41.5871 20.8556 42.5519 20.8556Z" fill="white"/>
</svg>
